<svg xmlns="http://www.w3.org/2000/svg" width="155" height="143" xmlns:xlink="http://www.w3.org/1999/xlink"><defs><path id="a" d="M0 .04718204V72.7349891h63.502075V.04718204H0z"/></defs><g fill="none" fill-rule="evenodd"><path fill="#92D4AA" d="M150.370837 71.2207935c0 39.3346525-32.0125 71.2219265-71.5016245 71.2219265-39.489125 0-71.5-31.887274-71.5-71.2219265 0-39.3346523 32.010875-71.2203079 71.5-71.2203079 39.4891245 0 71.5016245 31.8856556 71.5016245 71.2203079"/><path fill="#D9E3F8" d="M152.15135 54.2234197L108.1366 40.07323938c-2.026375-.65231327-4.229875.55681332-4.925375 2.70151577l-11.9405 36.84679755 10.8485 22.7613629 31.17725 10.0242584c2.026375.6523132 4.2315-.5568134 4.925375-2.6998972l16.339375-50.423978c.693875-2.1430838-.385125-4.4091845-2.409875-5.0598791"/><path fill="#FFF" d="M149.05995 57.5144453l-40.347125-12.9718079c-1.012375-.3253473-2.11575.2784066-2.461875 1.3483299L95.566575 78.8611139l9.644375 20.2330421 27.508 8.844267c1.014.326966 2.11575-.278406 2.4635-1.349948l15.08325-46.5457088c.346125-1.0715419-.193375-2.201355-1.20575-2.5283209"/><path fill="#5D8ACD" d="M104.107412 83.7495788l-12.8358745-4.1275406 10.8468745 22.7613628 4.4005-13.5755617c.693875-2.1414652-.385125-4.4075659-2.4115-5.0582605"/><path fill="#D9E3F8" d="M138.09445 66.3538567l-25.675-8.2550812c-1.012375-.3253473-2.11575.2800253-2.461875 1.3515672-.34775 1.0699233.193375 2.2029737 1.20575 2.528321l25.675 8.2534625c1.014.3269659 2.114125-.2751694 2.461875-1.3483299.34775-1.071542-.19175-2.2029737-1.20575-2.5299396m-7.489625 23.1174645l-14.67375-4.7167268c-1.01075-.3253473-2.114125.2800253-2.46025 1.3499486-.34775 1.0715419.193375 2.2029736 1.204125 2.5299396l14.672125 4.7167267c1.012375.3253473 2.114125-.276788 2.461875-1.3499485.34775-1.0699233-.190125-2.2045923-1.204125-2.5299396m4.97575-15.3593069l-14.6705-4.7167267c-1.012375-.3253474-2.11575.2800253-2.4635 1.3499485-.34775 1.0715419.193375 2.2029736 1.20575 2.528321l14.672125 4.7167267c1.014.326966 2.114125-.276788 2.461875-1.3499486.346125-1.0699232-.19175-2.2029736-1.20575-2.5283209m-2.513875 7.7597763l-25.676625-8.2550812c-1.01075-.3253473-2.114125.2784067-2.46025 1.3467113-.34775 1.0731606.193375 2.2062109 1.20575 2.5299396l25.675 8.2550811c1.014.326966 2.11575-.276788 2.461875-1.3499485.346125-1.0699233-.193375-2.201355-1.20575-2.5267023"/><g transform="translate(0 39.85)"><mask id="b" fill="#fff"><use xlink:href="#a"/></mask><path fill="#D9E3F8" d="M51.561575 2.92488643C50.866075.78018397 48.66095-.42732397 46.6362.22337065L2.62145 14.3735509c-2.026375.6523133-3.105375 2.9167954-2.4115 5.0598792l16.341 50.4255966c.693875 2.1414652 2.899 3.3505918 4.92375 2.6998972l31.17725-10.025877 10.850125-22.7597443-11.9405-36.84841617z" mask="url(#b)"/></g><path fill="#FFF" d="M48.5210375 45.8916147c-.346125-1.0699232-1.4495-1.6736772-2.461875-1.3483299L5.7120375 57.5150927c-1.014.326966-1.551875 1.4567791-1.20575 2.5267023l15.08325 46.547327c.34775 1.071542 1.4495 1.675296 2.4635 1.349949l27.509625-8.8442676 9.64275-20.233042-10.684375-32.9701467z"/><path fill="#5D8ACD" d="M50.6634375 83.7495788c-2.02475.6506946-3.10375 2.9167953-2.409875 5.0582605l4.398875 13.5755617 10.8485-22.7613628-12.8375 4.1275406z"/><path fill="#D9E3F8" d="M43.6096375 61.9785018c1.012375-.3253473 1.551875-1.456779 1.20575-2.5283209-.34775-1.0715419-1.451125-1.6769145-2.461875-1.3499486l-25.676625 8.2534625c-1.012375.326966-1.551875 1.4583977-1.204125 2.5315582.346125 1.0715419 1.447875 1.6736773 2.46025 1.34833l25.676625-8.2550812zm-4.771 22.7759308l-14.6705 4.7167267c-1.014.326966-1.551875 1.4600163-1.20575 2.5299396.34775 1.0731605 1.4495 1.6752959 2.4635 1.3499486l14.6705-4.7167268c1.012375-.3253473 1.5535-1.4583977 1.20575-2.5299396-.346125-1.0699232-1.451125-1.6752959-2.4635-1.3499485zm-3.719625-11.4794188c1.012375-.3269659 1.551875-1.4583976 1.207375-2.5299395-.34775-1.0699233-1.451125-1.6752959-2.4635-1.3499486l-14.672125 4.7167268c-1.012375.3253473-1.551875 1.4583976-1.20575 2.5299395.34775 1.0715419 1.4495 1.6752959 2.4635 1.3499486l14.6705-4.7167268zm14.724125 1.6882451c-.34775-1.0683047-1.451125-1.6720586-2.4635-1.3467113l-25.673375 8.2550811c-1.015625.3253473-1.555125 1.4567791-1.207375 2.528321s1.4495 1.6752958 2.4635 1.3499485l25.675-8.2566998c1.012375-.3237286 1.5535-1.4551603 1.20575-2.5299395z"/><path fill="#D9E3F8" d="M110.902675 115.474341H44.9748c-3.033875 0-5.494125-2.450626-5.494125-5.474252V38.8590949c0-3.0220071 2.46025-5.4726332 5.494125-5.4726332h46.69925l24.72275 24.6260401v51.9875872c0 3.023626-2.46025 5.474252-5.494125 5.474252"/><path fill="#FFF" d="M108.155775 110.000251h-60.43375c-1.519375 0-2.747875-1.225313-2.747875-2.733888V41.5947641c0-1.5118129 1.2285-2.7355073 2.747875-2.7355073H88.92715l21.974875 21.8905328v46.5165734c0 1.508575-1.230125 2.733888-2.74625 2.733888"/><path fill="#5D8ACD" d="M97.16785 58.0125018c-3.033875 0-5.494125-2.450626-5.494125-5.4726332V33.3864617l24.72275 24.6260401H97.16785z"/><path fill="#D9E3F8" d="M55.962075 91.4617669c0 1.5134316 1.230125 2.7387446 2.74625 2.7387446H97.1672c1.516125 0 2.747875-1.225313 2.747875-2.7387446 0-1.5101942-1.23175-2.73227-2.747875-2.73227H58.708325c-1.516125 0-2.74625 1.2220758-2.74625 2.73227M83.4327 58.8509591c0-1.5134315-1.23175-2.7387446-2.74625-2.7387446H58.708325c-1.516125 0-2.74625 1.2253131-2.74625 2.7387446 0 1.5085756 1.230125 2.7355073 2.74625 2.7355073H80.68645c1.5145 0 2.74625-1.2269317 2.74625-2.7355073M55.962075 80.5197378c0 1.5101943 1.230125 2.7371259 2.74625 2.7371259H80.68645c1.5145 0 2.74625-1.2269316 2.74625-2.7371259 0-1.5118129-1.23175-2.7355073-2.74625-2.7355073H58.708325c-1.516125 0-2.74625 1.2236944-2.74625 2.7355073m43.953-10.9436478c0-1.5134315-1.23175-2.7371259-2.747875-2.7371259H58.708325c-1.516125 0-2.74625 1.2236944-2.74625 2.7371259 0 1.5085756 1.230125 2.73227 2.74625 2.73227H97.1672c1.516125 0 2.747875-1.2236944 2.747875-2.73227"/></g></svg>