<svg xmlns="http://www.w3.org/2000/svg" width="143" height="143" xmlns:xlink="http://www.w3.org/1999/xlink"><defs><path id="a" d="M.00037632.82267826H142.163325V142.735805H.00037632V.82267826z"/><path id="c" d="M99.2362298 45.0782609H.01053684V.30227478H99.2362298V45.0782609z"/></defs><g fill="none" fill-rule="evenodd"><g transform="translate(0 -.57)"><mask id="b" fill="#fff"><use xlink:href="#a"/></mask><path fill="#B5CBF4" d="M142.163701 71.7788661c0 39.1880349-31.825026 70.9569389-71.0822896 70.9569389-39.2572632 0-71.08103508-31.768904-71.08103508-70.9569389 0-39.1880348 31.82377188-70.95693914 71.08103508-70.95693914 39.2572636 0 71.0822896 31.76890434 71.0822896 70.95693914" mask="url(#b)"/></g><path fill="#FFF" d="M82.7671456 99.612174v-9.4839653l-2.755886-11.3785044H65.0639965l-3.7368158 14.9209044v37.1419823L72.5376281 142.1648l10.9834035-9.892174"/><g transform="translate(22.58 97.1)"><mask id="d" fill="#fff"><use xlink:href="#c"/></mask><path fill="#6A9FEB" d="M94.8019754 15.2231791C91.287186 11.7145878 64.9061947.30227478 64.9061947.30227478L53.7973526 27.0937878l-3.838421 6.0016696-4.1959211-5.9365565L35.010414.30227478S8.62691404 11.7145878 5.11588772 15.2231791C2.7400807 17.5947965 1.11941404 21.774553.01053684 26.2686052 8.52029124 34.5141704 27.2282035 45.06624 49.9589316 45.06624c0 0 27.0909737 1.2471652 49.2772982-21.2581565-1.0750087-3.6588522-2.4385263-6.5914435-4.4342544-8.5849044" mask="url(#d)"/></g><path fill="#D1E8F7" d="M100.707625 108.124327L82.7548526 94.3266226 76.3763 124.193475l9.1971579-12.335165c1.1753596-1.575235 3.1309474-2.367861 5.0739912-2.052313l8.7179825 1.413704c1.7862454.289252 2.7759564-1.993461 1.3421934-3.095374zm-56.6581057.070122c-1.3948772 1.118191-.3951316 3.357078 1.3710439 3.071582l8.9450263-1.450017c1.9744035-.320557 3.9626052.503374 5.1291842 2.127443l8.8471842 12.315131-7.0145263-29.9319654-17.2779123 13.8678264z"/><path fill="#FFF" d="M99.0178412 47.7778087c0-14.9209044-9.3614824-21.2531478-24.9773333-21.2531478-15.6145965 0-24.2334825 7.4604521-24.2334825 22.3826087 0 11.1906782 0 18.6511304 4.0391228 26.1115826 4.0391229 7.4604521 13.0995527 15.1700869 21.0122193 15.1700869 0 0 6.3133246.1152 8.063193-.0375652 4.9598421-.432 10.8642369-4.6580869 13.3880614-9.3211826 4.0403771-7.4617043 2.7082193-21.8604522 2.7082193-33.0523826"/><path fill="#1F4577" d="M104.18842 52.4098504c-.18314-21.5311304-8.1735788-33.0348521-30.8139911-33.0348521-17.0445964 0-26.5678947 15.0786782-26.5678947 33.2627478h6.8589825c0-12.9888 10.7463245-23.5158261 24.0026754-23.5158261 13.2576053 0 20.8917983 10.5270261 20.8917983 23.5158261v20.5156174c.0250877 0 .0539385-.0037565.0802807-.0037565-.4264913 3.643826-2.6919123 6.6540521-5.7551229 7.9024695-.4829386-.7976348-1.3095789-1.3260522-2.2516228-1.3260522h-3.5938158c-1.4889561 0-2.6969298 1.3147827-2.6969298 2.9338435 0 1.6190609 1.2079737 2.9325913 2.6969298 2.9325913h3.5938158c.2646755 0 .5155527-.0550956.7576492-.1314782 6.0235614-.864 10.6936404-6.3535305 10.9031224-13.0877218 3.262658-1.2183652 6.551658-3.7490087 6.551658-6.6803478v-7.4604522c0-2.3565913-2.127438-4.4552348-4.657535-5.8226087"/><path fill="#477CC0" d="M40.807057 105.073405c-.016307-17.8121737-.1492719-43.2751302-.0075263-61.086052.1003509-12.5693217 12.4297105-22.2786782 24.8079912-19.7392695 1.5667281.3205565 2.9139386.1928348 4.3803158-.2754783 13.0757193-4.1722435 26.9090877 2.8361739 29.6913158 16.1442783 1.5692365 7.5055304 3.5235705 15.5394782-1.325886 22.759513-.0301052-4.7995826-.0940789-9.6004174 0-14.3974956 0-1.8569739-.4214736-2.3929044-2.3544824-2.3929044-7.2127193.1152-15.5681842.0137739-22.7821579.0563478-4.7014386.0262957-7.205193 2.5394087-7.2829649 7.2550957-.0526842 3.2005565-.0338684 6.4023652-.0025088 9.6016696.0188158 2.0435478-.984693 3.4034087-2.9590965 3.4034087-1.979421.0012521-2.9841842-1.3986783-2.986693-3.4084174-.0012544-1.000487.0564474-2.0047305-.0225789-3.0002087-.2408421-3.0778435-3.1447456-5.2027826-5.9809123-4.0608-4.8005351 1.9346087-2.6756053 6.3021913-2.9678772 9.7206261-.2182631 2.5569391 1.0238421 4.243377 1.6049009 6.515227.5810588 2.2718501 3.6849365 6.4707031 5.1057129 8.1450195 1.4207763 1.6743164 1.7167968 2.0186768 5.6101074 5.4595948.4324736.3822213.2733139 2.5952148.2733139 3.6076021 0 1.6932188-.8602695 4.1083473-2.2225327 5.0211821-2.7475585 2.0900878-3.6608886 3.1282958-5.3690112 3.6864353L40.807057 105.073405z"/><path fill="#247" d="M53.9848833 72.2722087V52.6368696c-4.1281842 0-11.2117017 3.3408-11.2117017 7.4604521v7.4604522c0 3.2406261 4.3815702 5.9979131 8.2601316 7.0297044 1.4939736.3969391 2.9515701-.7713392 2.9515701-2.3152696"/><path fill="#247" d="M47.2283842 56.0876104h6.8577281c0-12.9888-.1016053-26.2317913 14.5032105-31.773913 3.7694298-1.4299826 4.3426842-3.2982261-3.2037017-4.3525565-17.4033509 4.0983652-18.1572369 21.5699478-18.1572369 36.1264695"/><path fill="#477CC0" d="M82.7671456 90.1279583l-.0125438 4.1997913c-5.6748422.0463304-10.9520439-.4958609-15.3699913-4.0695653-.715-.5234086-1.2104824-1.3072695-1.0248333-1.6966956.4264912-.8953044 1.4024035-.410713 2.0295965-.1089391 4.6136316 2.2226087 10.2006667 2.0247652 14.3777719 1.6754087"/></g></svg>